<svg width="375" height="812" viewBox="0 0 375 812" fill="none" xmlns="http://www.w3.org/2000/svg">
<rect width="375" height="812" fill="#E5E5E5"/>
<rect width="375" height="812" fill="white"/>
<path d="M76.1562 769V757.625H79.5156C80.5208 757.625 81.4115 757.849 82.1875 758.297C82.9688 758.745 83.5729 759.38 84 760.203C84.4271 761.026 84.6406 761.969 84.6406 763.031V763.602C84.6406 764.68 84.4245 765.628 83.9922 766.445C83.5651 767.263 82.9531 767.893 82.1562 768.336C81.3646 768.779 80.4557 769 79.4297 769H76.1562ZM78.1328 759.219V767.422H79.4219C80.4583 767.422 81.2526 767.099 81.8047 766.453C82.362 765.802 82.6458 764.87 82.6562 763.656V763.023C82.6562 761.789 82.388 760.846 81.8516 760.195C81.3151 759.544 80.5365 759.219 79.5156 759.219H78.1328ZM86.0703 764.695C86.0703 763.867 86.2344 763.122 86.5625 762.461C86.8906 761.794 87.3516 761.284 87.9453 760.93C88.5391 760.57 89.2214 760.391 89.9922 760.391C91.1328 760.391 92.0573 760.758 92.7656 761.492C93.4792 762.227 93.8646 763.201 93.9219 764.414L93.9297 764.859C93.9297 765.693 93.7682 766.438 93.4453 767.094C93.1276 767.75 92.6693 768.258 92.0703 768.617C91.4766 768.977 90.7891 769.156 90.0078 769.156C88.8151 769.156 87.8594 768.76 87.1406 767.969C86.4271 767.172 86.0703 766.112 86.0703 764.789V764.695ZM87.9688 764.859C87.9688 765.729 88.1484 766.411 88.5078 766.906C88.8672 767.396 89.3672 767.641 90.0078 767.641C90.6484 767.641 91.1458 767.391 91.5 766.891C91.8594 766.391 92.0391 765.659 92.0391 764.695C92.0391 763.841 91.8542 763.164 91.4844 762.664C91.1198 762.164 90.6224 761.914 89.9922 761.914C89.3724 761.914 88.8802 762.161 88.5156 762.656C88.151 763.146 87.9688 763.88 87.9688 764.859ZM97.2969 760.547L97.3516 761.523C97.9766 760.768 98.7969 760.391 99.8125 760.391C101.573 760.391 102.469 761.398 102.5 763.414V769H100.602V763.523C100.602 762.987 100.484 762.591 100.25 762.336C100.021 762.076 99.6432 761.945 99.1172 761.945C98.3516 761.945 97.7812 762.292 97.4062 762.984V769H95.5078V760.547H97.2969ZM103.898 761L102.93 760.398C103.398 759.716 103.641 758.995 103.656 758.234V757H105.32V758.078C105.32 758.615 105.182 759.156 104.906 759.703C104.635 760.245 104.299 760.677 103.898 761ZM109.352 758.492V760.547H110.844V761.953H109.352V766.672C109.352 766.995 109.414 767.229 109.539 767.375C109.669 767.516 109.898 767.586 110.227 767.586C110.445 767.586 110.667 767.56 110.891 767.508V768.977C110.458 769.096 110.042 769.156 109.641 769.156C108.182 769.156 107.453 768.352 107.453 766.742V761.953H106.062V760.547H107.453V758.492H109.352ZM118.156 761.469C118.776 760.75 119.56 760.391 120.508 760.391C122.31 760.391 123.224 761.419 123.25 763.477V769H121.352V763.547C121.352 762.964 121.224 762.552 120.969 762.312C120.719 762.068 120.349 761.945 119.859 761.945C119.099 761.945 118.531 762.284 118.156 762.961V769H116.258V757H118.156V761.469ZM130.227 769C130.143 768.839 130.07 768.576 130.008 768.211C129.404 768.841 128.664 769.156 127.789 769.156C126.94 769.156 126.247 768.914 125.711 768.43C125.174 767.945 124.906 767.346 124.906 766.633C124.906 765.732 125.24 765.042 125.906 764.562C126.578 764.078 127.536 763.836 128.781 763.836H129.945V763.281C129.945 762.844 129.823 762.495 129.578 762.234C129.333 761.969 128.961 761.836 128.461 761.836C128.029 761.836 127.674 761.945 127.398 762.164C127.122 762.378 126.984 762.651 126.984 762.984H125.086C125.086 762.521 125.24 762.089 125.547 761.688C125.854 761.281 126.271 760.964 126.797 760.734C127.328 760.505 127.919 760.391 128.57 760.391C129.56 760.391 130.349 760.641 130.938 761.141C131.526 761.635 131.828 762.333 131.844 763.234V767.047C131.844 767.807 131.951 768.414 132.164 768.867V769H130.227ZM128.141 767.633C128.516 767.633 128.867 767.542 129.195 767.359C129.529 767.177 129.779 766.932 129.945 766.625V765.031H128.922C128.219 765.031 127.69 765.154 127.336 765.398C126.982 765.643 126.805 765.99 126.805 766.438C126.805 766.802 126.924 767.094 127.164 767.312C127.409 767.526 127.734 767.633 128.141 767.633ZM136.688 766.594L138.477 760.547H140.438L137.508 769H135.859L132.906 760.547H134.875L136.688 766.594ZM145.242 769.156C144.039 769.156 143.062 768.779 142.312 768.023C141.568 767.263 141.195 766.253 141.195 764.992V764.758C141.195 763.914 141.357 763.161 141.68 762.5C142.008 761.833 142.466 761.315 143.055 760.945C143.643 760.576 144.299 760.391 145.023 760.391C146.174 760.391 147.062 760.758 147.688 761.492C148.318 762.227 148.633 763.266 148.633 764.609V765.375H143.109C143.167 766.073 143.398 766.625 143.805 767.031C144.216 767.438 144.732 767.641 145.352 767.641C146.221 767.641 146.93 767.289 147.477 766.586L148.5 767.562C148.161 768.068 147.708 768.461 147.141 768.742C146.578 769.018 145.945 769.156 145.242 769.156ZM145.016 761.914C144.495 761.914 144.073 762.096 143.75 762.461C143.432 762.826 143.229 763.333 143.141 763.984H146.758V763.844C146.716 763.208 146.547 762.729 146.25 762.406C145.953 762.078 145.542 761.914 145.016 761.914ZM159.148 769C159.065 768.839 158.992 768.576 158.93 768.211C158.326 768.841 157.586 769.156 156.711 769.156C155.862 769.156 155.169 768.914 154.633 768.43C154.096 767.945 153.828 767.346 153.828 766.633C153.828 765.732 154.161 765.042 154.828 764.562C155.5 764.078 156.458 763.836 157.703 763.836H158.867V763.281C158.867 762.844 158.745 762.495 158.5 762.234C158.255 761.969 157.883 761.836 157.383 761.836C156.951 761.836 156.596 761.945 156.32 762.164C156.044 762.378 155.906 762.651 155.906 762.984H154.008C154.008 762.521 154.161 762.089 154.469 761.688C154.776 761.281 155.193 760.964 155.719 760.734C156.25 760.505 156.841 760.391 157.492 760.391C158.482 760.391 159.271 760.641 159.859 761.141C160.448 761.635 160.75 762.333 160.766 763.234V767.047C160.766 767.807 160.872 768.414 161.086 768.867V769H159.148ZM157.062 767.633C157.438 767.633 157.789 767.542 158.117 767.359C158.451 767.177 158.701 766.932 158.867 766.625V765.031H157.844C157.141 765.031 156.612 765.154 156.258 765.398C155.904 765.643 155.727 765.99 155.727 766.438C155.727 766.802 155.846 767.094 156.086 767.312C156.331 767.526 156.656 767.633 157.062 767.633ZM164.516 760.547L164.57 761.523C165.195 760.768 166.016 760.391 167.031 760.391C168.792 760.391 169.688 761.398 169.719 763.414V769H167.82V763.523C167.82 762.987 167.703 762.591 167.469 762.336C167.24 762.076 166.862 761.945 166.336 761.945C165.57 761.945 165 762.292 164.625 762.984V769H162.727V760.547H164.516ZM180.695 769C180.612 768.839 180.539 768.576 180.477 768.211C179.872 768.841 179.133 769.156 178.258 769.156C177.409 769.156 176.716 768.914 176.18 768.43C175.643 767.945 175.375 767.346 175.375 766.633C175.375 765.732 175.708 765.042 176.375 764.562C177.047 764.078 178.005 763.836 179.25 763.836H180.414V763.281C180.414 762.844 180.292 762.495 180.047 762.234C179.802 761.969 179.43 761.836 178.93 761.836C178.497 761.836 178.143 761.945 177.867 762.164C177.591 762.378 177.453 762.651 177.453 762.984H175.555C175.555 762.521 175.708 762.089 176.016 761.688C176.323 761.281 176.74 760.964 177.266 760.734C177.797 760.505 178.388 760.391 179.039 760.391C180.029 760.391 180.818 760.641 181.406 761.141C181.995 761.635 182.297 762.333 182.312 763.234V767.047C182.312 767.807 182.419 768.414 182.633 768.867V769H180.695ZM178.609 767.633C178.984 767.633 179.336 767.542 179.664 767.359C179.997 767.177 180.247 766.932 180.414 766.625V765.031H179.391C178.688 765.031 178.159 765.154 177.805 765.398C177.451 765.643 177.273 765.99 177.273 766.438C177.273 766.802 177.393 767.094 177.633 767.312C177.878 767.526 178.203 767.633 178.609 767.633ZM187.773 767.641C188.247 767.641 188.641 767.503 188.953 767.227C189.266 766.951 189.432 766.609 189.453 766.203H191.242C191.221 766.729 191.057 767.221 190.75 767.68C190.443 768.133 190.026 768.492 189.5 768.758C188.974 769.023 188.406 769.156 187.797 769.156C186.615 769.156 185.677 768.773 184.984 768.008C184.292 767.242 183.945 766.185 183.945 764.836V764.641C183.945 763.354 184.289 762.326 184.977 761.555C185.664 760.779 186.602 760.391 187.789 760.391C188.794 760.391 189.612 760.685 190.242 761.273C190.878 761.857 191.211 762.625 191.242 763.578H189.453C189.432 763.094 189.266 762.695 188.953 762.383C188.646 762.07 188.253 761.914 187.773 761.914C187.159 761.914 186.685 762.138 186.352 762.586C186.018 763.029 185.849 763.703 185.844 764.609V764.914C185.844 765.831 186.008 766.516 186.336 766.969C186.669 767.417 187.148 767.641 187.773 767.641ZM196.148 767.641C196.622 767.641 197.016 767.503 197.328 767.227C197.641 766.951 197.807 766.609 197.828 766.203H199.617C199.596 766.729 199.432 767.221 199.125 767.68C198.818 768.133 198.401 768.492 197.875 768.758C197.349 769.023 196.781 769.156 196.172 769.156C194.99 769.156 194.052 768.773 193.359 768.008C192.667 767.242 192.32 766.185 192.32 764.836V764.641C192.32 763.354 192.664 762.326 193.352 761.555C194.039 760.779 194.977 760.391 196.164 760.391C197.169 760.391 197.987 760.685 198.617 761.273C199.253 761.857 199.586 762.625 199.617 763.578H197.828C197.807 763.094 197.641 762.695 197.328 762.383C197.021 762.07 196.628 761.914 196.148 761.914C195.534 761.914 195.06 762.138 194.727 762.586C194.393 763.029 194.224 763.703 194.219 764.609V764.914C194.219 765.831 194.383 766.516 194.711 766.969C195.044 767.417 195.523 767.641 196.148 767.641ZM200.695 764.695C200.695 763.867 200.859 763.122 201.188 762.461C201.516 761.794 201.977 761.284 202.57 760.93C203.164 760.57 203.846 760.391 204.617 760.391C205.758 760.391 206.682 760.758 207.391 761.492C208.104 762.227 208.49 763.201 208.547 764.414L208.555 764.859C208.555 765.693 208.393 766.438 208.07 767.094C207.753 767.75 207.294 768.258 206.695 768.617C206.102 768.977 205.414 769.156 204.633 769.156C203.44 769.156 202.484 768.76 201.766 767.969C201.052 767.172 200.695 766.112 200.695 764.789V764.695ZM202.594 764.859C202.594 765.729 202.773 766.411 203.133 766.906C203.492 767.396 203.992 767.641 204.633 767.641C205.273 767.641 205.771 767.391 206.125 766.891C206.484 766.391 206.664 765.659 206.664 764.695C206.664 763.841 206.479 763.164 206.109 762.664C205.745 762.164 205.247 761.914 204.617 761.914C203.997 761.914 203.505 762.161 203.141 762.656C202.776 763.146 202.594 763.88 202.594 764.859ZM215.281 768.172C214.724 768.828 213.932 769.156 212.906 769.156C211.99 769.156 211.294 768.888 210.82 768.352C210.352 767.815 210.117 767.039 210.117 766.023V760.547H212.016V766C212.016 767.073 212.461 767.609 213.352 767.609C214.273 767.609 214.896 767.279 215.219 766.617V760.547H217.117V769H215.328L215.281 768.172ZM220.812 760.547L220.867 761.523C221.492 760.768 222.312 760.391 223.328 760.391C225.089 760.391 225.984 761.398 226.016 763.414V769H224.117V763.523C224.117 762.987 224 762.591 223.766 762.336C223.536 762.076 223.159 761.945 222.633 761.945C221.867 761.945 221.297 762.292 220.922 762.984V769H219.023V760.547H220.812ZM230.336 758.492V760.547H231.828V761.953H230.336V766.672C230.336 766.995 230.398 767.229 230.523 767.375C230.654 767.516 230.883 767.586 231.211 767.586C231.43 767.586 231.651 767.56 231.875 767.508V768.977C231.443 769.096 231.026 769.156 230.625 769.156C229.167 769.156 228.438 768.352 228.438 766.742V761.953H227.047V760.547H228.438V758.492H230.336ZM235.047 765.656C235.047 764.964 235.133 764.411 235.305 764C235.477 763.589 235.815 763.138 236.32 762.648C236.831 762.154 237.154 761.802 237.289 761.594C237.497 761.276 237.602 760.932 237.602 760.562C237.602 760.073 237.479 759.701 237.234 759.445C236.995 759.185 236.641 759.055 236.172 759.055C235.724 759.055 235.362 759.182 235.086 759.438C234.815 759.688 234.68 760.029 234.68 760.461H232.781C232.792 759.539 233.104 758.81 233.719 758.273C234.339 757.737 235.156 757.469 236.172 757.469C237.219 757.469 238.034 757.734 238.617 758.266C239.206 758.797 239.5 759.539 239.5 760.492C239.5 761.341 239.104 762.177 238.312 763L237.352 763.945C237.008 764.336 236.831 764.906 236.82 765.656H235.047ZM234.914 768.086C234.914 767.779 235.01 767.531 235.203 767.344C235.396 767.151 235.656 767.055 235.984 767.055C236.318 767.055 236.581 767.154 236.773 767.352C236.966 767.544 237.062 767.789 237.062 768.086C237.062 768.372 236.969 768.612 236.781 768.805C236.594 768.997 236.328 769.094 235.984 769.094C235.641 769.094 235.375 768.997 235.188 768.805C235.005 768.612 234.914 768.372 234.914 768.086Z" fill="black" fill-opacity="0.51"/>
<path d="M251.18 766.07C251.18 765.57 251.003 765.185 250.648 764.914C250.299 764.643 249.667 764.37 248.75 764.094C247.833 763.818 247.104 763.51 246.562 763.172C245.526 762.521 245.008 761.672 245.008 760.625C245.008 759.708 245.38 758.953 246.125 758.359C246.875 757.766 247.846 757.469 249.039 757.469C249.831 757.469 250.536 757.615 251.156 757.906C251.776 758.198 252.263 758.615 252.617 759.156C252.971 759.693 253.148 760.289 253.148 760.945H251.18C251.18 760.352 250.992 759.888 250.617 759.555C250.247 759.216 249.716 759.047 249.023 759.047C248.378 759.047 247.875 759.185 247.516 759.461C247.161 759.737 246.984 760.122 246.984 760.617C246.984 761.034 247.177 761.383 247.562 761.664C247.948 761.94 248.583 762.211 249.469 762.477C250.354 762.737 251.065 763.036 251.602 763.375C252.138 763.708 252.531 764.094 252.781 764.531C253.031 764.964 253.156 765.471 253.156 766.055C253.156 767.003 252.792 767.758 252.062 768.32C251.339 768.878 250.354 769.156 249.109 769.156C248.286 769.156 247.529 769.005 246.836 768.703C246.148 768.396 245.612 767.974 245.227 767.438C244.846 766.901 244.656 766.276 244.656 765.562H246.633C246.633 766.208 246.846 766.708 247.273 767.062C247.701 767.417 248.312 767.594 249.109 767.594C249.797 767.594 250.312 767.456 250.656 767.18C251.005 766.898 251.18 766.529 251.18 766.07ZM256.727 769H254.828V760.547H256.727V769ZM254.711 758.352C254.711 758.06 254.802 757.818 254.984 757.625C255.172 757.432 255.438 757.336 255.781 757.336C256.125 757.336 256.391 757.432 256.578 757.625C256.766 757.818 256.859 758.06 256.859 758.352C256.859 758.638 256.766 758.878 256.578 759.07C256.391 759.258 256.125 759.352 255.781 759.352C255.438 759.352 255.172 759.258 254.984 759.07C254.802 758.878 254.711 758.638 254.711 758.352ZM258.469 764.711C258.469 763.398 258.776 762.352 259.391 761.57C260.01 760.784 260.831 760.391 261.852 760.391C262.815 760.391 263.573 760.727 264.125 761.398L264.211 760.547H265.922V768.742C265.922 769.852 265.576 770.727 264.883 771.367C264.195 772.008 263.266 772.328 262.094 772.328C261.474 772.328 260.867 772.198 260.273 771.938C259.685 771.682 259.237 771.346 258.93 770.93L259.828 769.789C260.411 770.482 261.13 770.828 261.984 770.828C262.615 770.828 263.112 770.656 263.477 770.312C263.841 769.974 264.023 769.474 264.023 768.812V768.242C263.477 768.852 262.747 769.156 261.836 769.156C260.846 769.156 260.036 768.763 259.406 767.977C258.781 767.19 258.469 766.102 258.469 764.711ZM260.359 764.875C260.359 765.724 260.531 766.393 260.875 766.883C261.224 767.367 261.706 767.609 262.32 767.609C263.086 767.609 263.654 767.281 264.023 766.625V762.906C263.664 762.266 263.102 761.945 262.336 761.945C261.711 761.945 261.224 762.193 260.875 762.688C260.531 763.182 260.359 763.911 260.359 764.875ZM269.641 760.547L269.695 761.523C270.32 760.768 271.141 760.391 272.156 760.391C273.917 760.391 274.812 761.398 274.844 763.414V769H272.945V763.523C272.945 762.987 272.828 762.591 272.594 762.336C272.365 762.076 271.987 761.945 271.461 761.945C270.695 761.945 270.125 762.292 269.75 762.984V769H267.852V760.547H269.641ZM289.273 757.625V765.227C289.273 766.435 288.885 767.393 288.109 768.102C287.339 768.805 286.31 769.156 285.023 769.156C283.721 769.156 282.688 768.81 281.922 768.117C281.156 767.419 280.773 766.453 280.773 765.219V757.625H282.742V765.234C282.742 765.995 282.935 766.576 283.32 766.977C283.706 767.378 284.273 767.578 285.023 767.578C286.544 767.578 287.305 766.776 287.305 765.172V757.625H289.273ZM298.609 764.859C298.609 766.167 298.312 767.211 297.719 767.992C297.125 768.768 296.328 769.156 295.328 769.156C294.401 769.156 293.659 768.852 293.102 768.242V772.25H291.203V760.547H292.953L293.031 761.406C293.589 760.729 294.346 760.391 295.305 760.391C296.336 760.391 297.143 760.776 297.727 761.547C298.315 762.312 298.609 763.378 298.609 764.742V764.859ZM296.719 764.695C296.719 763.852 296.549 763.182 296.211 762.688C295.878 762.193 295.398 761.945 294.773 761.945C293.997 761.945 293.44 762.266 293.102 762.906V766.656C293.445 767.312 294.008 767.641 294.789 767.641C295.393 767.641 295.865 767.398 296.203 766.914C296.547 766.424 296.719 765.685 296.719 764.695Z" fill="#007AFF"/>
<path d="M25.6875 194.428H19.5254V199.467H26.6836V201H17.6504V186.781H26.5859V188.324H19.5254V192.895H25.6875V194.428ZM30.8534 190.434L30.912 191.762C31.7192 190.746 32.7739 190.238 34.076 190.238C36.3091 190.238 37.4354 191.498 37.4549 194.018V201H35.6483V194.008C35.6418 193.246 35.466 192.683 35.1209 192.318C34.7824 191.954 34.2518 191.771 33.5291 191.771C32.9432 191.771 32.4289 191.928 31.9862 192.24C31.5435 192.553 31.1984 192.963 30.951 193.471V201H29.1444V190.434H30.8534ZM43.0407 187.875V190.434H45.0134V191.83H43.0407V198.383C43.0407 198.806 43.1286 199.125 43.3044 199.34C43.4802 199.548 43.7796 199.652 44.2028 199.652C44.4111 199.652 44.6976 199.613 45.0622 199.535V201C44.5869 201.13 44.1247 201.195 43.6755 201.195C42.8682 201.195 42.2595 200.951 41.8493 200.463C41.4391 199.975 41.2341 199.281 41.2341 198.383V191.83H39.3102V190.434H41.2341V187.875H43.0407ZM51.9273 201.195C50.495 201.195 49.3296 200.727 48.4312 199.789C47.5327 198.845 47.0835 197.585 47.0835 196.01V195.678C47.0835 194.63 47.2821 193.695 47.6792 192.875C48.0829 192.048 48.6428 191.404 49.3589 190.941C50.0816 190.473 50.8628 190.238 51.7027 190.238C53.0764 190.238 54.1441 190.691 54.9058 191.596C55.6675 192.501 56.0484 193.796 56.0484 195.482V196.234H48.8902C48.9162 197.276 49.2189 198.119 49.7984 198.764C50.3843 199.402 51.1265 199.721 52.0249 199.721C52.6629 199.721 53.2033 199.59 53.646 199.33C54.0887 199.07 54.4761 198.725 54.8081 198.295L55.9116 199.154C55.0262 200.515 53.6981 201.195 51.9273 201.195ZM51.7027 191.723C50.9735 191.723 50.3615 191.99 49.8667 192.523C49.3719 193.051 49.0659 193.793 48.9487 194.75H54.2417V194.613C54.1896 193.695 53.9422 192.986 53.4995 192.484C53.0568 191.977 52.4579 191.723 51.7027 191.723ZM63.6654 192.055C63.392 192.009 63.0957 191.986 62.7767 191.986C61.5918 191.986 60.7878 192.491 60.3646 193.5V201H58.558V190.434H60.3158L60.3451 191.654C60.9375 190.71 61.7774 190.238 62.8646 190.238C63.2162 190.238 63.4831 190.284 63.6654 190.375V192.055ZM74.5733 198.354L77.0342 190.434H78.9678L74.7198 202.631C74.0622 204.389 73.0173 205.268 71.585 205.268L71.2432 205.238L70.5694 205.111V203.646L71.0577 203.686C71.6696 203.686 72.1449 203.562 72.4834 203.314C72.8285 203.067 73.1117 202.615 73.333 201.957L73.7334 200.883L69.9639 190.434H71.9366L74.5733 198.354ZM80.3641 195.619C80.3641 194.584 80.566 193.653 80.9696 192.826C81.3798 191.999 81.9462 191.361 82.6688 190.912C83.398 190.463 84.2281 190.238 85.1591 190.238C86.5979 190.238 87.76 190.736 88.6454 191.732C89.5373 192.729 89.9833 194.053 89.9833 195.707V195.834C89.9833 196.863 89.7847 197.787 89.3876 198.607C88.997 199.421 88.4338 200.056 87.6981 200.512C86.969 200.967 86.1291 201.195 85.1786 201.195C83.7463 201.195 82.5842 200.697 81.6923 199.701C80.8068 198.705 80.3641 197.387 80.3641 195.746V195.619ZM82.1805 195.834C82.1805 197.006 82.4507 197.947 82.9911 198.656C83.538 199.366 84.2671 199.721 85.1786 199.721C86.0966 199.721 86.8257 199.363 87.3661 198.646C87.9065 197.924 88.1766 196.915 88.1766 195.619C88.1766 194.46 87.8999 193.523 87.3466 192.807C86.7997 192.084 86.0705 191.723 85.1591 191.723C84.2671 191.723 83.5477 192.077 83.0009 192.787C82.454 193.497 82.1805 194.512 82.1805 195.834ZM99.1823 199.955C98.4792 200.782 97.4473 201.195 96.0866 201.195C94.9603 201.195 94.101 200.87 93.5085 200.219C92.9226 199.561 92.6264 198.591 92.6198 197.309V190.434H94.4265V197.26C94.4265 198.861 95.0775 199.662 96.3796 199.662C97.7598 199.662 98.6778 199.148 99.1335 198.119V190.434H100.94V201H99.2214L99.1823 199.955ZM109.211 192.055C108.938 192.009 108.642 191.986 108.323 191.986C107.138 191.986 106.334 192.491 105.911 193.5V201H104.104V190.434H105.862L105.891 191.654C106.484 190.71 107.323 190.238 108.411 190.238C108.762 190.238 109.029 190.284 109.211 190.375V192.055ZM121.047 201.195C119.615 201.195 118.449 200.727 117.551 199.789C116.653 198.845 116.203 197.585 116.203 196.01V195.678C116.203 194.63 116.402 193.695 116.799 192.875C117.203 192.048 117.763 191.404 118.479 190.941C119.201 190.473 119.983 190.238 120.823 190.238C122.196 190.238 123.264 190.691 124.026 191.596C124.787 192.501 125.168 193.796 125.168 195.482V196.234H118.01C118.036 197.276 118.339 198.119 118.918 198.764C119.504 199.402 120.246 199.721 121.145 199.721C121.783 199.721 122.323 199.59 122.766 199.33C123.209 199.07 123.596 198.725 123.928 198.295L125.031 199.154C124.146 200.515 122.818 201.195 121.047 201.195ZM120.823 191.723C120.093 191.723 119.481 191.99 118.987 192.523C118.492 193.051 118.186 193.793 118.069 194.75H123.362V194.613C123.309 193.695 123.062 192.986 122.619 192.484C122.177 191.977 121.578 191.723 120.823 191.723ZM129.377 190.434L129.426 191.605C130.201 190.694 131.246 190.238 132.561 190.238C134.038 190.238 135.044 190.805 135.578 191.938C135.93 191.43 136.385 191.02 136.945 190.707C137.512 190.395 138.179 190.238 138.947 190.238C141.265 190.238 142.443 191.465 142.482 193.92V201H140.676V194.027C140.676 193.272 140.503 192.709 140.158 192.338C139.813 191.96 139.234 191.771 138.42 191.771C137.749 191.771 137.193 191.973 136.75 192.377C136.307 192.774 136.05 193.311 135.979 193.988V201H134.162V194.076C134.162 192.54 133.41 191.771 131.906 191.771C130.721 191.771 129.911 192.276 129.475 193.285V201H127.668V190.434H129.377ZM152.15 201C152.046 200.792 151.962 200.421 151.896 199.887C151.057 200.759 150.054 201.195 148.889 201.195C147.847 201.195 146.991 200.902 146.32 200.316C145.656 199.724 145.324 198.975 145.324 198.07C145.324 196.97 145.741 196.117 146.574 195.512C147.414 194.9 148.592 194.594 150.109 194.594H151.867V193.764C151.867 193.132 151.678 192.631 151.301 192.26C150.923 191.882 150.366 191.693 149.631 191.693C148.986 191.693 148.446 191.856 148.01 192.182C147.573 192.507 147.355 192.901 147.355 193.363H145.539C145.539 192.836 145.725 192.328 146.096 191.84C146.473 191.345 146.981 190.954 147.619 190.668C148.264 190.382 148.97 190.238 149.738 190.238C150.956 190.238 151.909 190.544 152.6 191.156C153.29 191.762 153.648 192.598 153.674 193.666V198.529C153.674 199.499 153.797 200.271 154.045 200.844V201H152.15ZM149.152 199.623C149.719 199.623 150.256 199.477 150.764 199.184C151.271 198.891 151.639 198.51 151.867 198.041V195.873H150.451C148.238 195.873 147.131 196.521 147.131 197.816C147.131 198.383 147.32 198.826 147.697 199.145C148.075 199.464 148.56 199.623 149.152 199.623ZM158.879 201H157.072V190.434H158.879V201ZM156.926 187.631C156.926 187.338 157.013 187.09 157.189 186.889C157.372 186.687 157.638 186.586 157.99 186.586C158.342 186.586 158.608 186.687 158.791 186.889C158.973 187.09 159.064 187.338 159.064 187.631C159.064 187.924 158.973 188.168 158.791 188.363C158.608 188.559 158.342 188.656 157.99 188.656C157.638 188.656 157.372 188.559 157.189 188.363C157.013 188.168 156.926 187.924 156.926 187.631ZM164.152 201H162.345V186H164.152V201ZM179.357 201C179.253 200.792 179.168 200.421 179.103 199.887C178.263 200.759 177.26 201.195 176.095 201.195C175.053 201.195 174.197 200.902 173.527 200.316C172.863 199.724 172.531 198.975 172.531 198.07C172.531 196.97 172.947 196.117 173.781 195.512C174.62 194.9 175.799 194.594 177.316 194.594H179.074V193.764C179.074 193.132 178.885 192.631 178.507 192.26C178.13 191.882 177.573 191.693 176.837 191.693C176.193 191.693 175.652 191.856 175.216 192.182C174.78 192.507 174.562 192.901 174.562 193.363H172.745C172.745 192.836 172.931 192.328 173.302 191.84C173.68 191.345 174.187 190.954 174.825 190.668C175.47 190.382 176.176 190.238 176.945 190.238C178.162 190.238 179.116 190.544 179.806 191.156C180.496 191.762 180.854 192.598 180.88 193.666V198.529C180.88 199.499 181.004 200.271 181.251 200.844V201H179.357ZM176.359 199.623C176.925 199.623 177.462 199.477 177.97 199.184C178.478 198.891 178.846 198.51 179.074 198.041V195.873H177.658C175.444 195.873 174.337 196.521 174.337 197.816C174.337 198.383 174.526 198.826 174.904 199.145C175.281 199.464 175.766 199.623 176.359 199.623ZM183.683 195.629C183.683 194.008 184.067 192.706 184.835 191.723C185.603 190.733 186.609 190.238 187.853 190.238C189.09 190.238 190.069 190.661 190.792 191.508V186H192.599V201H190.939L190.851 199.867C190.128 200.753 189.122 201.195 187.833 201.195C186.609 201.195 185.61 200.694 184.835 199.691C184.067 198.689 183.683 197.38 183.683 195.766V195.629ZM185.489 195.834C185.489 197.032 185.737 197.969 186.232 198.646C186.726 199.324 187.41 199.662 188.282 199.662C189.428 199.662 190.265 199.148 190.792 198.119V193.266C190.252 192.27 189.422 191.771 188.302 191.771C187.416 191.771 186.726 192.113 186.232 192.797C185.737 193.48 185.489 194.493 185.489 195.834ZM195.382 195.629C195.382 194.008 195.766 192.706 196.534 191.723C197.302 190.733 198.308 190.238 199.552 190.238C200.789 190.238 201.769 190.661 202.491 191.508V186H204.298V201H202.638L202.55 199.867C201.827 200.753 200.821 201.195 199.532 201.195C198.308 201.195 197.309 200.694 196.534 199.691C195.766 198.689 195.382 197.38 195.382 195.766V195.629ZM197.188 195.834C197.188 197.032 197.436 197.969 197.931 198.646C198.425 199.324 199.109 199.662 199.981 199.662C201.127 199.662 201.964 199.148 202.491 198.119V193.266C201.951 192.27 201.121 191.771 200.001 191.771C199.116 191.771 198.425 192.113 197.931 192.797C197.436 193.48 197.188 194.493 197.188 195.834ZM212.628 192.055C212.354 192.009 212.058 191.986 211.739 191.986C210.554 191.986 209.75 192.491 209.327 193.5V201H207.52V190.434H209.278L209.307 191.654C209.9 190.71 210.74 190.238 211.827 190.238C212.179 190.238 212.445 190.284 212.628 190.375V192.055ZM218.897 201.195C217.465 201.195 216.299 200.727 215.401 199.789C214.503 198.845 214.053 197.585 214.053 196.01V195.678C214.053 194.63 214.252 193.695 214.649 192.875C215.053 192.048 215.613 191.404 216.329 190.941C217.051 190.473 217.833 190.238 218.673 190.238C220.046 190.238 221.114 190.691 221.876 191.596C222.637 192.501 223.018 193.796 223.018 195.482V196.234H215.86C215.886 197.276 216.189 198.119 216.768 198.764C217.354 199.402 218.096 199.721 218.995 199.721C219.633 199.721 220.173 199.59 220.616 199.33C221.059 199.07 221.446 198.725 221.778 198.295L222.881 199.154C221.996 200.515 220.668 201.195 218.897 201.195ZM218.673 191.723C217.943 191.723 217.331 191.99 216.837 192.523C216.342 193.051 216.036 193.793 215.919 194.75H221.212V194.613C221.159 193.695 220.912 192.986 220.469 192.484C220.027 191.977 219.428 191.723 218.673 191.723ZM231.68 198.197C231.68 197.709 231.495 197.331 231.124 197.064C230.759 196.791 230.118 196.557 229.2 196.361C228.288 196.166 227.562 195.932 227.022 195.658C226.488 195.385 226.091 195.059 225.831 194.682C225.577 194.304 225.45 193.855 225.45 193.334C225.45 192.468 225.814 191.736 226.543 191.137C227.279 190.538 228.217 190.238 229.356 190.238C230.554 190.238 231.524 190.548 232.266 191.166C233.015 191.785 233.389 192.576 233.389 193.539H231.573C231.573 193.044 231.361 192.618 230.938 192.26C230.521 191.902 229.994 191.723 229.356 191.723C228.698 191.723 228.184 191.866 227.813 192.152C227.442 192.439 227.256 192.813 227.256 193.275C227.256 193.712 227.429 194.04 227.774 194.262C228.119 194.483 228.741 194.695 229.639 194.896C230.544 195.098 231.277 195.339 231.836 195.619C232.396 195.899 232.81 196.238 233.077 196.635C233.35 197.025 233.487 197.504 233.487 198.07C233.487 199.014 233.109 199.773 232.354 200.346C231.599 200.912 230.619 201.195 229.415 201.195C228.568 201.195 227.819 201.046 227.168 200.746C226.517 200.447 226.006 200.03 225.635 199.496C225.271 198.956 225.088 198.373 225.088 197.748H226.895C226.928 198.354 227.168 198.835 227.618 199.193C228.073 199.545 228.672 199.721 229.415 199.721C230.098 199.721 230.645 199.584 231.055 199.311C231.472 199.031 231.68 198.66 231.68 198.197ZM242.403 198.197C242.403 197.709 242.217 197.331 241.846 197.064C241.481 196.791 240.84 196.557 239.922 196.361C239.011 196.166 238.285 195.932 237.744 195.658C237.211 195.385 236.813 195.059 236.553 194.682C236.299 194.304 236.172 193.855 236.172 193.334C236.172 192.468 236.537 191.736 237.266 191.137C238.002 190.538 238.939 190.238 240.078 190.238C241.276 190.238 242.246 190.548 242.989 191.166C243.737 191.785 244.112 192.576 244.112 193.539H242.295C242.295 193.044 242.084 192.618 241.66 192.26C241.244 191.902 240.716 191.723 240.078 191.723C239.421 191.723 238.907 191.866 238.535 192.152C238.164 192.439 237.979 192.813 237.979 193.275C237.979 193.712 238.151 194.04 238.496 194.262C238.841 194.483 239.463 194.695 240.362 194.896C241.267 195.098 241.999 195.339 242.559 195.619C243.119 195.899 243.532 196.238 243.799 196.635C244.073 197.025 244.209 197.504 244.209 198.07C244.209 199.014 243.832 199.773 243.076 200.346C242.321 200.912 241.341 201.195 240.137 201.195C239.291 201.195 238.542 201.046 237.891 200.746C237.24 200.447 236.729 200.03 236.358 199.496C235.993 198.956 235.811 198.373 235.811 197.748H237.617C237.65 198.354 237.891 198.835 238.34 199.193C238.796 199.545 239.395 199.721 240.137 199.721C240.821 199.721 241.367 199.584 241.778 199.311C242.194 199.031 242.403 198.66 242.403 198.197ZM258.867 201C258.763 200.792 258.678 200.421 258.613 199.887C257.773 200.759 256.771 201.195 255.605 201.195C254.564 201.195 253.708 200.902 253.037 200.316C252.373 199.724 252.041 198.975 252.041 198.07C252.041 196.97 252.458 196.117 253.291 195.512C254.131 194.9 255.309 194.594 256.826 194.594H258.584V193.764C258.584 193.132 258.395 192.631 258.018 192.26C257.64 191.882 257.083 191.693 256.348 191.693C255.703 191.693 255.163 191.856 254.727 192.182C254.29 192.507 254.072 192.901 254.072 193.363H252.256C252.256 192.836 252.441 192.328 252.812 191.84C253.19 191.345 253.698 190.954 254.336 190.668C254.98 190.382 255.687 190.238 256.455 190.238C257.673 190.238 258.626 190.544 259.316 191.156C260.007 191.762 260.365 192.598 260.391 193.666V198.529C260.391 199.499 260.514 200.271 260.762 200.844V201H258.867ZM255.869 199.623C256.436 199.623 256.973 199.477 257.48 199.184C257.988 198.891 258.356 198.51 258.584 198.041V195.873H257.168C254.954 195.873 253.848 196.521 253.848 197.816C253.848 198.383 254.036 198.826 254.414 199.145C254.792 199.464 255.277 199.623 255.869 199.623ZM265.342 190.434L265.4 191.762C266.208 190.746 267.262 190.238 268.564 190.238C270.797 190.238 271.924 191.498 271.943 194.018V201H270.137V194.008C270.13 193.246 269.954 192.683 269.609 192.318C269.271 191.954 268.74 191.771 268.017 191.771C267.431 191.771 266.917 191.928 266.474 192.24C266.032 192.553 265.687 192.963 265.439 193.471V201H263.633V190.434H265.342ZM274.638 195.629C274.638 194.008 275.022 192.706 275.791 191.723C276.559 190.733 277.565 190.238 278.808 190.238C280.045 190.238 281.025 190.661 281.748 191.508V186H283.554V201H281.894L281.806 199.867C281.084 200.753 280.078 201.195 278.789 201.195C277.565 201.195 276.565 200.694 275.791 199.691C275.022 198.689 274.638 197.38 274.638 195.766V195.629ZM276.445 195.834C276.445 197.032 276.692 197.969 277.187 198.646C277.682 199.324 278.366 199.662 279.238 199.662C280.384 199.662 281.22 199.148 281.748 198.119V193.266C281.207 192.27 280.377 191.771 279.258 191.771C278.372 191.771 277.682 192.113 277.187 192.797C276.692 193.48 276.445 194.493 276.445 195.834ZM26.293 221.834C26.293 223.442 25.9251 224.738 25.1895 225.721C24.4538 226.704 23.4577 227.195 22.2012 227.195C20.9186 227.195 19.9095 226.788 19.1738 225.975V231.062H17.3672V216.434H19.0176L19.1055 217.605C19.8411 216.694 20.8633 216.238 22.1719 216.238C23.4414 216.238 24.444 216.717 25.1797 217.674C25.9219 218.631 26.293 219.962 26.293 221.668V221.834ZM24.4863 221.629C24.4863 220.438 24.2324 219.497 23.7246 218.807C23.2168 218.117 22.5202 217.771 21.6348 217.771C20.541 217.771 19.7207 218.257 19.1738 219.227V224.275C19.7142 225.239 20.541 225.721 21.6543 225.721C22.5202 225.721 23.207 225.379 23.7148 224.695C24.2292 224.005 24.4863 222.983 24.4863 221.629ZM35.5311 227C35.4269 226.792 35.3423 226.421 35.2772 225.887C34.4373 226.759 33.4347 227.195 32.2694 227.195C31.2277 227.195 30.3716 226.902 29.701 226.316C29.037 225.724 28.7049 224.975 28.7049 224.07C28.7049 222.97 29.1216 222.117 29.9549 221.512C30.7948 220.9 31.9732 220.594 33.4901 220.594H35.2479V219.764C35.2479 219.132 35.0591 218.631 34.6815 218.26C34.3039 217.882 33.7472 217.693 33.0116 217.693C32.367 217.693 31.8267 217.856 31.3905 218.182C30.9543 218.507 30.7362 218.901 30.7362 219.363H28.9198C28.9198 218.836 29.1053 218.328 29.4764 217.84C29.854 217.345 30.3618 216.954 30.9998 216.668C31.6444 216.382 32.3508 216.238 33.119 216.238C34.3364 216.238 35.2902 216.544 35.9803 217.156C36.6704 217.762 37.0285 218.598 37.0545 219.666V224.529C37.0545 225.499 37.1782 226.271 37.4256 226.844V227H35.5311ZM32.533 225.623C33.0995 225.623 33.6366 225.477 34.1444 225.184C34.6522 224.891 35.02 224.51 35.2479 224.041V221.873H33.8319C31.6183 221.873 30.5116 222.521 30.5116 223.816C30.5116 224.383 30.7004 224.826 31.078 225.145C31.4556 225.464 31.9406 225.623 32.533 225.623ZM46.4489 224.197C46.4489 223.709 46.2634 223.331 45.8923 223.064C45.5277 222.791 44.8864 222.557 43.9684 222.361C43.057 222.166 42.3311 221.932 41.7907 221.658C41.2568 221.385 40.8597 221.059 40.5993 220.682C40.3454 220.304 40.2184 219.855 40.2184 219.334C40.2184 218.468 40.583 217.736 41.3122 217.137C42.0479 216.538 42.9854 216.238 44.1247 216.238C45.3226 216.238 46.2927 216.548 47.0348 217.166C47.7835 217.785 48.1579 218.576 48.1579 219.539H46.3415C46.3415 219.044 46.1299 218.618 45.7067 218.26C45.2901 217.902 44.7627 217.723 44.1247 217.723C43.4671 217.723 42.9528 217.866 42.5817 218.152C42.2106 218.439 42.0251 218.813 42.0251 219.275C42.0251 219.712 42.1976 220.04 42.5427 220.262C42.8877 220.483 43.5095 220.695 44.4079 220.896C45.3128 221.098 46.0453 221.339 46.6052 221.619C47.1651 221.899 47.5785 222.238 47.8454 222.635C48.1188 223.025 48.2555 223.504 48.2555 224.07C48.2555 225.014 47.8779 225.773 47.1227 226.346C46.3675 226.912 45.3877 227.195 44.1833 227.195C43.3369 227.195 42.5882 227.046 41.9372 226.746C41.2861 226.447 40.7751 226.03 40.404 225.496C40.0394 224.956 39.8571 224.373 39.8571 223.748H41.6637C41.6963 224.354 41.9372 224.835 42.3864 225.193C42.8421 225.545 43.4411 225.721 44.1833 225.721C44.8669 225.721 45.4137 225.584 45.8239 225.311C46.2406 225.031 46.4489 224.66 46.4489 224.197ZM57.1714 224.197C57.1714 223.709 56.9859 223.331 56.6148 223.064C56.2502 222.791 55.6089 222.557 54.6909 222.361C53.7795 222.166 53.0536 221.932 52.5132 221.658C51.9793 221.385 51.5822 221.059 51.3218 220.682C51.0679 220.304 50.9409 219.855 50.9409 219.334C50.9409 218.468 51.3055 217.736 52.0347 217.137C52.7704 216.538 53.7079 216.238 54.8472 216.238C56.0451 216.238 57.0152 216.548 57.7573 217.166C58.506 217.785 58.8804 218.576 58.8804 219.539H57.064C57.064 219.044 56.8524 218.618 56.4292 218.26C56.0126 217.902 55.4852 217.723 54.8472 217.723C54.1896 217.723 53.6753 217.866 53.3042 218.152C52.9331 218.439 52.7476 218.813 52.7476 219.275C52.7476 219.712 52.9201 220.04 53.2652 220.262C53.6102 220.483 54.232 220.695 55.1304 220.896C56.0353 221.098 56.7678 221.339 57.3277 221.619C57.8876 221.899 58.301 222.238 58.5679 222.635C58.8413 223.025 58.978 223.504 58.978 224.07C58.978 225.014 58.6004 225.773 57.8452 226.346C57.09 226.912 56.1102 227.195 54.9058 227.195C54.0594 227.195 53.3107 227.046 52.6597 226.746C52.0086 226.447 51.4976 226.03 51.1265 225.496C50.7619 224.956 50.5796 224.373 50.5796 223.748H52.3862C52.4188 224.354 52.6597 224.835 53.1089 225.193C53.5646 225.545 54.1636 225.721 54.9058 225.721C55.5894 225.721 56.1362 225.584 56.5464 225.311C56.9631 225.031 57.1714 224.66 57.1714 224.197ZM71.097 224.51L73.1283 216.434H74.9349L71.8587 227H70.3939L67.8255 218.992L65.3255 227H63.8607L60.7943 216.434H62.5912L64.6712 224.344L67.1322 216.434H68.5873L71.097 224.51ZM76.7121 221.619C76.7121 220.584 76.9139 219.653 77.3176 218.826C77.7277 217.999 78.2941 217.361 79.0168 216.912C79.746 216.463 80.576 216.238 81.507 216.238C82.9458 216.238 84.1079 216.736 84.9934 217.732C85.8853 218.729 86.3312 220.053 86.3312 221.707V221.834C86.3312 222.863 86.1327 223.787 85.7355 224.607C85.3449 225.421 84.7818 226.056 84.0461 226.512C83.3169 226.967 82.4771 227.195 81.5266 227.195C80.0943 227.195 78.9322 226.697 78.0402 225.701C77.1548 224.705 76.7121 223.387 76.7121 221.746V221.619ZM78.5285 221.834C78.5285 223.006 78.7987 223.947 79.3391 224.656C79.8859 225.366 80.6151 225.721 81.5266 225.721C82.4445 225.721 83.1737 225.363 83.7141 224.646C84.2544 223.924 84.5246 222.915 84.5246 221.619C84.5246 220.46 84.2479 219.523 83.6945 218.807C83.1477 218.084 82.4185 217.723 81.507 217.723C80.6151 217.723 79.8957 218.077 79.3488 218.787C78.802 219.497 78.5285 220.512 78.5285 221.834ZM94.1143 218.055C93.8409 218.009 93.5446 217.986 93.2256 217.986C92.0407 217.986 91.2367 218.491 90.8135 219.5V227H89.0069V216.434H90.7647L90.794 217.654C91.3864 216.71 92.2263 216.238 93.3135 216.238C93.6651 216.238 93.932 216.284 94.1143 216.375V218.055ZM95.5595 221.629C95.5595 220.008 95.9436 218.706 96.7118 217.723C97.48 216.733 98.4859 216.238 99.7294 216.238C100.966 216.238 101.946 216.661 102.669 217.508V212H104.475V227H102.815L102.727 225.867C102.005 226.753 100.999 227.195 99.7098 227.195C98.4859 227.195 97.4865 226.694 96.7118 225.691C95.9436 224.689 95.5595 223.38 95.5595 221.766V221.629ZM97.3661 221.834C97.3661 223.032 97.6135 223.969 98.1083 224.646C98.6031 225.324 99.2867 225.662 100.159 225.662C101.305 225.662 102.141 225.148 102.669 224.119V219.266C102.128 218.27 101.298 217.771 100.179 217.771C99.2932 217.771 98.6031 218.113 98.1083 218.797C97.6135 219.48 97.3661 220.493 97.3661 221.834ZM115.52 213.875V216.434H117.493V217.83H115.52V224.383C115.52 224.806 115.608 225.125 115.784 225.34C115.96 225.548 116.259 225.652 116.682 225.652C116.891 225.652 117.177 225.613 117.542 225.535V227C117.066 227.13 116.604 227.195 116.155 227.195C115.348 227.195 114.739 226.951 114.329 226.463C113.919 225.975 113.713 225.281 113.713 224.383V217.83H111.79V216.434H113.713V213.875H115.52ZM119.348 221.619C119.348 220.584 119.55 219.653 119.954 218.826C120.364 217.999 120.93 217.361 121.653 216.912C122.382 216.463 123.212 216.238 124.143 216.238C125.582 216.238 126.744 216.736 127.629 217.732C128.521 218.729 128.967 220.053 128.967 221.707V221.834C128.967 222.863 128.769 223.787 128.371 224.607C127.981 225.421 127.418 226.056 126.682 226.512C125.953 226.967 125.113 227.195 124.162 227.195C122.73 227.195 121.568 226.697 120.676 225.701C119.791 224.705 119.348 223.387 119.348 221.746V221.619ZM121.164 221.834C121.164 223.006 121.435 223.947 121.975 224.656C122.522 225.366 123.251 225.721 124.162 225.721C125.08 225.721 125.81 225.363 126.35 224.646C126.89 223.924 127.161 222.915 127.161 221.619C127.161 220.46 126.884 219.523 126.33 218.807C125.784 218.084 125.054 217.723 124.143 217.723C123.251 217.723 122.532 218.077 121.985 218.787C121.438 219.497 121.164 220.512 121.164 221.834ZM143.537 227C143.433 226.792 143.348 226.421 143.283 225.887C142.443 226.759 141.441 227.195 140.275 227.195C139.234 227.195 138.378 226.902 137.707 226.316C137.043 225.724 136.711 224.975 136.711 224.07C136.711 222.97 137.128 222.117 137.961 221.512C138.801 220.9 139.979 220.594 141.496 220.594H143.254V219.764C143.254 219.132 143.065 218.631 142.688 218.26C142.31 217.882 141.753 217.693 141.018 217.693C140.373 217.693 139.833 217.856 139.397 218.182C138.96 218.507 138.742 218.901 138.742 219.363H136.926C136.926 218.836 137.111 218.328 137.482 217.84C137.86 217.345 138.368 216.954 139.006 216.668C139.65 216.382 140.357 216.238 141.125 216.238C142.343 216.238 143.296 216.544 143.986 217.156C144.677 217.762 145.035 218.598 145.061 219.666V224.529C145.061 225.499 145.184 226.271 145.432 226.844V227H143.537ZM140.539 225.623C141.106 225.623 141.643 225.477 142.15 225.184C142.658 224.891 143.026 224.51 143.254 224.041V221.873H141.838C139.624 221.873 138.518 222.521 138.518 223.816C138.518 224.383 138.706 224.826 139.084 225.145C139.462 225.464 139.947 225.623 140.539 225.623ZM152.541 225.721C153.185 225.721 153.749 225.525 154.23 225.135C154.712 224.744 154.979 224.256 155.031 223.67H156.74C156.708 224.275 156.499 224.852 156.115 225.398C155.731 225.945 155.217 226.382 154.572 226.707C153.934 227.033 153.257 227.195 152.541 227.195C151.102 227.195 149.956 226.717 149.103 225.76C148.257 224.796 147.834 223.481 147.834 221.814V221.512C147.834 220.483 148.023 219.568 148.4 218.768C148.778 217.967 149.318 217.345 150.021 216.902C150.731 216.46 151.568 216.238 152.531 216.238C153.716 216.238 154.699 216.593 155.48 217.303C156.268 218.012 156.688 218.934 156.74 220.066H155.031C154.979 219.383 154.719 218.823 154.25 218.387C153.788 217.944 153.215 217.723 152.531 217.723C151.613 217.723 150.9 218.055 150.393 218.719C149.891 219.376 149.641 220.33 149.641 221.58V221.922C149.641 223.139 149.891 224.077 150.393 224.734C150.894 225.392 151.61 225.721 152.541 225.721ZM163.42 225.721C164.064 225.721 164.627 225.525 165.109 225.135C165.591 224.744 165.858 224.256 165.91 223.67H167.619C167.586 224.275 167.378 224.852 166.994 225.398C166.61 225.945 166.095 226.382 165.451 226.707C164.813 227.033 164.136 227.195 163.42 227.195C161.981 227.195 160.835 226.717 159.982 225.76C159.136 224.796 158.713 223.481 158.713 221.814V221.512C158.713 220.483 158.901 219.568 159.279 218.768C159.657 217.967 160.197 217.345 160.9 216.902C161.61 216.46 162.446 216.238 163.41 216.238C164.595 216.238 165.578 216.593 166.359 217.303C167.147 218.012 167.567 218.934 167.619 220.066H165.91C165.858 219.383 165.597 218.823 165.129 218.387C164.666 217.944 164.094 217.723 163.41 217.723C162.492 217.723 161.779 218.055 161.271 218.719C160.77 219.376 160.519 220.33 160.519 221.58V221.922C160.519 223.139 160.77 224.077 161.271 224.734C161.773 225.392 162.489 225.721 163.42 225.721ZM174.445 227.195C173.013 227.195 171.847 226.727 170.949 225.789C170.05 224.845 169.601 223.585 169.601 222.01V221.678C169.601 220.63 169.8 219.695 170.197 218.875C170.601 218.048 171.16 217.404 171.877 216.941C172.599 216.473 173.38 216.238 174.22 216.238C175.594 216.238 176.662 216.691 177.423 217.596C178.185 218.501 178.566 219.796 178.566 221.482V222.234H171.408C171.434 223.276 171.737 224.119 172.316 224.764C172.902 225.402 173.644 225.721 174.543 225.721C175.181 225.721 175.721 225.59 176.164 225.33C176.606 225.07 176.994 224.725 177.326 224.295L178.429 225.154C177.544 226.515 176.216 227.195 174.445 227.195ZM174.22 217.723C173.491 217.723 172.879 217.99 172.384 218.523C171.89 219.051 171.584 219.793 171.466 220.75H176.759V220.613C176.707 219.695 176.46 218.986 176.017 218.484C175.574 217.977 174.976 217.723 174.22 217.723ZM187.228 224.197C187.228 223.709 187.042 223.331 186.671 223.064C186.307 222.791 185.665 222.557 184.747 222.361C183.836 222.166 183.11 221.932 182.57 221.658C182.036 221.385 181.639 221.059 181.378 220.682C181.124 220.304 180.997 219.855 180.997 219.334C180.997 218.468 181.362 217.736 182.091 217.137C182.827 216.538 183.764 216.238 184.904 216.238C186.102 216.238 187.072 216.548 187.814 217.166C188.563 217.785 188.937 218.576 188.937 219.539H187.121C187.121 219.044 186.909 218.618 186.486 218.26C186.069 217.902 185.542 217.723 184.904 217.723C184.246 217.723 183.732 217.866 183.361 218.152C182.99 218.439 182.804 218.813 182.804 219.275C182.804 219.712 182.977 220.04 183.322 220.262C183.667 220.483 184.289 220.695 185.187 220.896C186.092 221.098 186.824 221.339 187.384 221.619C187.944 221.899 188.358 222.238 188.624 222.635C188.898 223.025 189.035 223.504 189.035 224.07C189.035 225.014 188.657 225.773 187.902 226.346C187.147 226.912 186.167 227.195 184.962 227.195C184.116 227.195 183.367 227.046 182.716 226.746C182.065 226.447 181.554 226.03 181.183 225.496C180.818 224.956 180.636 224.373 180.636 223.748H182.443C182.475 224.354 182.716 224.835 183.165 225.193C183.621 225.545 184.22 225.721 184.962 225.721C185.646 225.721 186.193 225.584 186.603 225.311C187.02 225.031 187.228 224.66 187.228 224.197ZM197.95 224.197C197.95 223.709 197.765 223.331 197.394 223.064C197.029 222.791 196.388 222.557 195.47 222.361C194.559 222.166 193.833 221.932 193.292 221.658C192.758 221.385 192.361 221.059 192.101 220.682C191.847 220.304 191.72 219.855 191.72 219.334C191.72 218.468 192.085 217.736 192.814 217.137C193.549 216.538 194.487 216.238 195.626 216.238C196.824 216.238 197.794 216.548 198.536 217.166C199.285 217.785 199.659 218.576 199.659 219.539H197.843C197.843 219.044 197.631 218.618 197.208 218.26C196.792 217.902 196.264 217.723 195.626 217.723C194.969 217.723 194.454 217.866 194.083 218.152C193.712 218.439 193.527 218.813 193.527 219.275C193.527 219.712 193.699 220.04 194.044 220.262C194.389 220.483 195.011 220.695 195.909 220.896C196.814 221.098 197.547 221.339 198.107 221.619C198.667 221.899 199.08 222.238 199.347 222.635C199.62 223.025 199.757 223.504 199.757 224.07C199.757 225.014 199.38 225.773 198.624 226.346C197.869 226.912 196.889 227.195 195.685 227.195C194.838 227.195 194.09 227.046 193.439 226.746C192.788 226.447 192.277 226.03 191.906 225.496C191.541 224.956 191.359 224.373 191.359 223.748H193.165C193.198 224.354 193.439 224.835 193.888 225.193C194.344 225.545 194.943 225.721 195.685 225.721C196.368 225.721 196.915 225.584 197.325 225.311C197.742 225.031 197.95 224.66 197.95 224.197ZM211.349 224.354L213.81 216.434H215.743L211.495 228.631C210.838 230.389 209.793 231.268 208.36 231.268L208.019 231.238L207.345 231.111V229.646L207.833 229.686C208.445 229.686 208.92 229.562 209.259 229.314C209.604 229.067 209.887 228.615 210.108 227.957L210.509 226.883L206.739 216.434H208.712L211.349 224.354ZM217.139 221.619C217.139 220.584 217.341 219.653 217.745 218.826C218.155 217.999 218.721 217.361 219.444 216.912C220.173 216.463 221.003 216.238 221.934 216.238C223.373 216.238 224.535 216.736 225.421 217.732C226.313 218.729 226.759 220.053 226.759 221.707V221.834C226.759 222.863 226.56 223.787 226.163 224.607C225.772 225.421 225.209 226.056 224.473 226.512C223.744 226.967 222.904 227.195 221.954 227.195C220.522 227.195 219.36 226.697 218.468 225.701C217.582 224.705 217.139 223.387 217.139 221.746V221.619ZM218.956 221.834C218.956 223.006 219.226 223.947 219.766 224.656C220.313 225.366 221.042 225.721 221.954 225.721C222.872 225.721 223.601 225.363 224.141 224.646C224.682 223.924 224.952 222.915 224.952 221.619C224.952 220.46 224.675 219.523 224.122 218.807C223.575 218.084 222.846 217.723 221.934 217.723C221.042 217.723 220.323 218.077 219.776 218.787C219.229 219.497 218.956 220.512 218.956 221.834ZM235.958 225.955C235.255 226.782 234.223 227.195 232.862 227.195C231.736 227.195 230.876 226.87 230.284 226.219C229.698 225.561 229.402 224.591 229.395 223.309V216.434H231.202V223.26C231.202 224.861 231.853 225.662 233.155 225.662C234.535 225.662 235.453 225.148 235.909 224.119V216.434H237.715V227H235.997L235.958 225.955ZM245.987 218.055C245.713 218.009 245.417 217.986 245.098 217.986C243.913 217.986 243.109 218.491 242.686 219.5V227H240.879V216.434H242.637L242.666 217.654C243.259 216.71 244.099 216.238 245.186 216.238C245.538 216.238 245.805 216.284 245.987 216.375V218.055ZM259.961 227C259.857 226.792 259.772 226.421 259.707 225.887C258.867 226.759 257.865 227.195 256.699 227.195C255.658 227.195 254.802 226.902 254.131 226.316C253.467 225.724 253.135 224.975 253.135 224.07C253.135 222.97 253.552 222.117 254.385 221.512C255.225 220.9 256.403 220.594 257.92 220.594H259.678V219.764C259.678 219.132 259.489 218.631 259.111 218.26C258.734 217.882 258.177 217.693 257.442 217.693C256.797 217.693 256.257 217.856 255.82 218.182C255.384 218.507 255.166 218.901 255.166 219.363H253.35C253.35 218.836 253.535 218.328 253.906 217.84C254.284 217.345 254.792 216.954 255.43 216.668C256.074 216.382 256.781 216.238 257.549 216.238C258.766 216.238 259.72 216.544 260.41 217.156C261.1 217.762 261.458 218.598 261.485 219.666V224.529C261.485 225.499 261.608 226.271 261.856 226.844V227H259.961ZM256.963 225.623C257.529 225.623 258.067 225.477 258.574 225.184C259.082 224.891 259.45 224.51 259.678 224.041V221.873H258.262C256.048 221.873 254.942 222.521 254.942 223.816C254.942 224.383 255.13 224.826 255.508 225.145C255.886 225.464 256.371 225.623 256.963 225.623ZM268.965 225.721C269.609 225.721 270.173 225.525 270.654 225.135C271.136 224.744 271.403 224.256 271.455 223.67H273.164C273.132 224.275 272.923 224.852 272.539 225.398C272.155 225.945 271.641 226.382 270.996 226.707C270.358 227.033 269.681 227.195 268.965 227.195C267.526 227.195 266.38 226.717 265.527 225.76C264.681 224.796 264.258 223.481 264.258 221.814V221.512C264.258 220.483 264.447 219.568 264.824 218.768C265.202 217.967 265.742 217.345 266.445 216.902C267.155 216.46 267.992 216.238 268.955 216.238C270.14 216.238 271.123 216.593 271.904 217.303C272.692 218.012 273.112 218.934 273.164 220.066H271.455C271.403 219.383 271.143 218.823 270.674 218.387C270.212 217.944 269.639 217.723 268.955 217.723C268.037 217.723 267.324 218.055 266.816 218.719C266.315 219.376 266.064 220.33 266.064 221.58V221.922C266.064 223.139 266.315 224.077 266.816 224.734C267.318 225.392 268.034 225.721 268.965 225.721ZM279.844 225.721C280.488 225.721 281.051 225.525 281.533 225.135C282.015 224.744 282.282 224.256 282.334 223.67H284.043C284.01 224.275 283.802 224.852 283.418 225.398C283.034 225.945 282.519 226.382 281.875 226.707C281.237 227.033 280.56 227.195 279.844 227.195C278.405 227.195 277.259 226.717 276.406 225.76C275.56 224.796 275.137 223.481 275.137 221.814V221.512C275.137 220.483 275.325 219.568 275.703 218.768C276.081 217.967 276.621 217.345 277.324 216.902C278.034 216.46 278.87 216.238 279.834 216.238C281.019 216.238 282.002 216.593 282.783 217.303C283.571 218.012 283.991 218.934 284.043 220.066H282.334C282.282 219.383 282.021 218.823 281.553 218.387C281.09 217.944 280.517 217.723 279.834 217.723C278.916 217.723 278.203 218.055 277.695 218.719C277.194 219.376 276.943 220.33 276.943 221.58V221.922C276.943 223.139 277.194 224.077 277.695 224.734C278.196 225.392 278.913 225.721 279.844 225.721ZM286.006 221.619C286.006 220.584 286.207 219.653 286.611 218.826C287.021 217.999 287.588 217.361 288.31 216.912C289.039 216.463 289.869 216.238 290.8 216.238C292.239 216.238 293.401 216.736 294.287 217.732C295.179 218.729 295.625 220.053 295.625 221.707V221.834C295.625 222.863 295.426 223.787 295.029 224.607C294.638 225.421 294.075 226.056 293.34 226.512C292.61 226.967 291.771 227.195 290.82 227.195C289.388 227.195 288.226 226.697 287.334 225.701C286.448 224.705 286.006 223.387 286.006 221.746V221.619ZM287.822 221.834C287.822 223.006 288.092 223.947 288.633 224.656C289.179 225.366 289.909 225.721 290.82 225.721C291.738 225.721 292.467 225.363 293.008 224.646C293.548 223.924 293.818 222.915 293.818 221.619C293.818 220.46 293.541 219.523 292.988 218.807C292.441 218.084 291.712 217.723 290.8 217.723C289.909 217.723 289.189 218.077 288.642 218.787C288.095 219.497 287.822 220.512 287.822 221.834ZM304.824 225.955C304.121 226.782 303.089 227.195 301.728 227.195C300.602 227.195 299.742 226.87 299.15 226.219C298.564 225.561 298.268 224.591 298.261 223.309V216.434H300.068V223.26C300.068 224.861 300.719 225.662 302.021 225.662C303.401 225.662 304.319 225.148 304.775 224.119V216.434H306.582V227H304.863L304.824 225.955ZM311.454 216.434L311.513 217.762C312.32 216.746 313.375 216.238 314.677 216.238C316.91 216.238 318.036 217.498 318.056 220.018V227H316.249V220.008C316.243 219.246 316.067 218.683 315.722 218.318C315.384 217.954 314.853 217.771 314.13 217.771C313.544 217.771 313.03 217.928 312.587 218.24C312.145 218.553 311.8 218.963 311.552 219.471V227H309.745V216.434H311.454ZM323.642 213.875V216.434H325.614V217.83H323.642V224.383C323.642 224.806 323.73 225.125 323.905 225.34C324.081 225.548 324.381 225.652 324.804 225.652C325.012 225.652 325.299 225.613 325.663 225.535V227C325.188 227.13 324.726 227.195 324.277 227.195C323.469 227.195 322.861 226.951 322.45 226.463C322.04 225.975 321.835 225.281 321.835 224.383V217.83H319.911V216.434H321.835V213.875H323.642Z" fill="black" fill-opacity="0.5"/>
<path d="M22.2656 155.844H32.5938V159H18.3125V136.25H22.2656V155.844ZM34.9569 150.391C34.9569 148.734 35.285 147.245 35.9412 145.922C36.5975 144.589 37.5194 143.568 38.7069 142.859C39.8944 142.141 41.259 141.781 42.8006 141.781C45.0819 141.781 46.9308 142.516 48.3475 143.984C49.7746 145.453 50.5454 147.401 50.66 149.828L50.6756 150.719C50.6756 152.385 50.3527 153.875 49.7069 155.188C49.0715 156.5 48.1548 157.516 46.9569 158.234C45.7694 158.953 44.3944 159.312 42.8319 159.312C40.4465 159.312 38.535 158.521 37.0975 156.938C35.6704 155.344 34.9569 153.224 34.9569 150.578V150.391ZM38.7537 150.719C38.7537 152.458 39.1131 153.823 39.8319 154.812C40.5506 155.792 41.5506 156.281 42.8319 156.281C44.1131 156.281 45.1079 155.781 45.8162 154.781C46.535 153.781 46.8944 152.318 46.8944 150.391C46.8944 148.682 46.5246 147.328 45.785 146.328C45.0558 145.328 44.061 144.828 42.8006 144.828C41.561 144.828 40.5767 145.323 39.8475 146.312C39.1183 147.292 38.7537 148.76 38.7537 150.719ZM53.6325 150.422C53.6325 147.797 54.2471 145.703 55.4762 144.141C56.7158 142.568 58.3565 141.781 60.3981 141.781C62.3252 141.781 63.8408 142.453 64.945 143.797L65.1169 142.094H68.5387V158.484C68.5387 160.703 67.846 162.453 66.4606 163.734C65.0856 165.016 63.2262 165.656 60.8825 165.656C59.6429 165.656 58.4294 165.396 57.2419 164.875C56.0648 164.365 55.169 163.693 54.5544 162.859L56.3512 160.578C57.5179 161.964 58.9554 162.656 60.6637 162.656C61.9242 162.656 62.919 162.312 63.6481 161.625C64.3773 160.948 64.7419 159.948 64.7419 158.625V157.484C63.6481 158.703 62.1898 159.312 60.3669 159.312C58.3877 159.312 56.7679 158.526 55.5075 156.953C54.2575 155.38 53.6325 153.203 53.6325 150.422ZM57.4137 150.75C57.4137 152.448 57.7575 153.786 58.445 154.766C59.1429 155.734 60.1065 156.219 61.3356 156.219C62.8669 156.219 64.0023 155.562 64.7419 154.25V146.812C64.0231 145.531 62.8981 144.891 61.3669 144.891C60.1169 144.891 59.1429 145.385 58.445 146.375C57.7575 147.365 57.4137 148.823 57.4137 150.75ZM76.9019 159H73.105V142.094H76.9019V159ZM72.8706 137.703C72.8706 137.12 73.0529 136.635 73.4175 136.25C73.7925 135.865 74.3237 135.672 75.0112 135.672C75.6987 135.672 76.23 135.865 76.605 136.25C76.98 136.635 77.1675 137.12 77.1675 137.703C77.1675 138.276 76.98 138.755 76.605 139.141C76.23 139.516 75.6987 139.703 75.0112 139.703C74.3237 139.703 73.7925 139.516 73.4175 139.141C73.0529 138.755 72.8706 138.276 72.8706 137.703ZM84.9837 142.094L85.0931 144.047C86.3431 142.536 87.9837 141.781 90.015 141.781C93.5358 141.781 95.3275 143.797 95.39 147.828V159H91.5931V148.047C91.5931 146.974 91.3587 146.182 90.89 145.672C90.4317 145.151 89.6765 144.891 88.6244 144.891C87.0931 144.891 85.9525 145.583 85.2025 146.969V159H81.4056V142.094H84.9837Z" fill="black"/>
<path fill-rule="evenodd" clip-rule="evenodd" d="M16 512C16 506.477 20.4772 502 26 502H349C354.523 502 359 506.477 359 512V540C359 545.523 354.523 550 349 550H26C20.4772 550 16 545.523 16 540V512Z" fill="black" fill-opacity="0.94"/>
<g filter="url(#filter0_dd_0:1)">
<path d="M170.482 530.323H175.968V532H168.382V519.914H170.482V530.323ZM176.596 527.426C176.596 526.546 176.77 525.755 177.119 525.052C177.468 524.344 177.957 523.802 178.588 523.425C179.219 523.043 179.944 522.853 180.763 522.853C181.975 522.853 182.957 523.243 183.71 524.023C184.468 524.803 184.877 525.838 184.938 527.127L184.947 527.601C184.947 528.486 184.775 529.277 184.432 529.975C184.094 530.672 183.607 531.211 182.971 531.593C182.34 531.975 181.61 532.166 180.78 532.166C179.512 532.166 178.497 531.745 177.733 530.904C176.975 530.058 176.596 528.931 176.596 527.526V527.426ZM178.613 527.601C178.613 528.525 178.804 529.25 179.186 529.775C179.568 530.296 180.099 530.556 180.78 530.556C181.46 530.556 181.989 530.29 182.365 529.759C182.747 529.228 182.938 528.45 182.938 527.426C182.938 526.519 182.741 525.799 182.348 525.268C181.961 524.737 181.433 524.471 180.763 524.471C180.104 524.471 179.582 524.734 179.194 525.26C178.807 525.78 178.613 526.56 178.613 527.601ZM185.89 527.443C185.89 526.048 186.216 524.936 186.869 524.106C187.528 523.27 188.399 522.853 189.484 522.853C190.508 522.853 191.313 523.209 191.899 523.923L191.991 523.019H193.809V531.726C193.809 532.905 193.441 533.834 192.705 534.515C191.974 535.196 190.986 535.536 189.741 535.536C189.083 535.536 188.438 535.398 187.807 535.121C187.182 534.85 186.706 534.493 186.379 534.05L187.334 532.838C187.954 533.574 188.717 533.942 189.625 533.942C190.295 533.942 190.823 533.76 191.21 533.395C191.598 533.035 191.792 532.504 191.792 531.801V531.195C191.21 531.842 190.436 532.166 189.467 532.166C188.416 532.166 187.555 531.748 186.886 530.913C186.222 530.077 185.89 528.92 185.89 527.443ZM187.898 527.617C187.898 528.519 188.081 529.23 188.446 529.75C188.817 530.265 189.329 530.522 189.982 530.522C190.795 530.522 191.399 530.174 191.792 529.477V525.525C191.41 524.845 190.812 524.504 189.999 524.504C189.334 524.504 188.817 524.767 188.446 525.293C188.081 525.819 187.898 526.593 187.898 527.617ZM197.624 532H195.607V523.019H197.624V532ZM195.482 520.686C195.482 520.376 195.579 520.119 195.773 519.914C195.972 519.709 196.254 519.607 196.619 519.607C196.985 519.607 197.267 519.709 197.466 519.914C197.665 520.119 197.765 520.376 197.765 520.686C197.765 520.99 197.665 521.245 197.466 521.45C197.267 521.649 196.985 521.749 196.619 521.749C196.254 521.749 195.972 521.649 195.773 521.45C195.579 521.245 195.482 520.99 195.482 520.686ZM201.289 523.019L201.347 524.056C202.012 523.254 202.883 522.853 203.962 522.853C205.833 522.853 206.784 523.923 206.818 526.065V532H204.801V526.181C204.801 525.611 204.676 525.191 204.427 524.919C204.184 524.643 203.782 524.504 203.223 524.504C202.41 524.504 201.804 524.872 201.406 525.608V532H199.388V523.019H201.289Z" fill="white"/>
</g>
<path fill-rule="evenodd" clip-rule="evenodd" d="M16 341C16 337.686 18.6863 335 22 335H353C356.314 335 359 337.686 359 341V377C359 380.314 356.314 383 353 383H22C18.6863 383 16 380.314 16 377V341Z" fill="#F2F2F7"/>
<path d="M37.7653 358.742H32.8356V362.773H38.5622V364H31.3356V352.625H38.4841V353.859H32.8356V357.516H37.7653V358.742ZM41.1522 355.547L41.1912 356.484C41.811 355.755 42.647 355.391 43.6991 355.391C44.8814 355.391 45.686 355.844 46.1131 356.75C46.3944 356.344 46.759 356.016 47.2069 355.766C47.66 355.516 48.1939 355.391 48.8084 355.391C50.6626 355.391 51.6053 356.372 51.6366 358.336V364H50.1912V358.422C50.1912 357.818 50.0532 357.367 49.7772 357.07C49.5011 356.768 49.0376 356.617 48.3866 356.617C47.8501 356.617 47.4048 356.779 47.0506 357.102C46.6965 357.419 46.4907 357.849 46.4334 358.391V364H44.9803V358.461C44.9803 357.232 44.3787 356.617 43.1756 356.617C42.2277 356.617 41.5793 357.021 41.2303 357.828V364H39.785V355.547H41.1522ZM58.6328 364C58.5495 363.833 58.4818 363.536 58.4297 363.109C57.7578 363.807 56.9557 364.156 56.0234 364.156C55.1901 364.156 54.5052 363.922 53.9688 363.453C53.4375 362.979 53.1719 362.38 53.1719 361.656C53.1719 360.776 53.5052 360.094 54.1719 359.609C54.8438 359.12 55.7865 358.875 57 358.875H58.4062V358.211C58.4062 357.706 58.2552 357.305 57.9531 357.008C57.651 356.706 57.2057 356.555 56.6172 356.555C56.1016 356.555 55.6693 356.685 55.3203 356.945C54.9714 357.206 54.7969 357.521 54.7969 357.891H53.3438C53.3438 357.469 53.4922 357.062 53.7891 356.672C54.0911 356.276 54.4974 355.964 55.0078 355.734C55.5234 355.505 56.0885 355.391 56.7031 355.391C57.6771 355.391 58.4401 355.635 58.9922 356.125C59.5443 356.609 59.8307 357.279 59.8516 358.133V362.023C59.8516 362.799 59.9505 363.417 60.1484 363.875V364H58.6328ZM56.2344 362.898C56.6875 362.898 57.1172 362.781 57.5234 362.547C57.9297 362.312 58.224 362.008 58.4062 361.633V359.898H57.2734C55.5026 359.898 54.6172 360.417 54.6172 361.453C54.6172 361.906 54.7682 362.26 55.0703 362.516C55.3724 362.771 55.7604 362.898 56.2344 362.898ZM63.2775 364H61.8322V355.547H63.2775V364ZM61.715 353.305C61.715 353.07 61.7853 352.872 61.9259 352.711C62.0718 352.549 62.2853 352.469 62.5666 352.469C62.8478 352.469 63.0614 352.549 63.2072 352.711C63.353 352.872 63.4259 353.07 63.4259 353.305C63.4259 353.539 63.353 353.734 63.2072 353.891C63.0614 354.047 62.8478 354.125 62.5666 354.125C62.2853 354.125 62.0718 354.047 61.9259 353.891C61.7853 353.734 61.715 353.539 61.715 353.305ZM66.7581 364H65.3128V352H66.7581V364Z" fill="#929292"/>
<path fill-rule="evenodd" clip-rule="evenodd" d="M16 401C16 397.686 18.6863 395 22 395H353C356.314 395 359 397.686 359 401V437C359 440.314 356.314 443 353 443H22C18.6863 443 16 440.314 16 437V401Z" fill="#F2F2F7"/>
<path d="M32.9272 419.547V424H31.4272V412.625H35.6225C36.8673 412.625 37.8412 412.943 38.5444 413.578C39.2527 414.214 39.6069 415.055 39.6069 416.102C39.6069 417.206 39.2605 418.057 38.5678 418.656C37.8803 419.25 36.8933 419.547 35.6069 419.547H32.9272ZM32.9272 418.32H35.6225C36.4246 418.32 37.0392 418.133 37.4662 417.758C37.8933 417.378 38.1069 416.831 38.1069 416.117C38.1069 415.44 37.8933 414.898 37.4662 414.492C37.0392 414.086 36.4532 413.875 35.7084 413.859H32.9272V418.32ZM46.0094 424C45.926 423.833 45.8583 423.536 45.8062 423.109C45.1344 423.807 44.3323 424.156 43.4 424.156C42.5667 424.156 41.8818 423.922 41.3453 423.453C40.8141 422.979 40.5484 422.38 40.5484 421.656C40.5484 420.776 40.8818 420.094 41.5484 419.609C42.2203 419.12 43.163 418.875 44.3766 418.875H45.7828V418.211C45.7828 417.706 45.6318 417.305 45.3297 417.008C45.0276 416.706 44.5823 416.555 43.9937 416.555C43.4781 416.555 43.0458 416.685 42.6969 416.945C42.3479 417.206 42.1734 417.521 42.1734 417.891H40.7203C40.7203 417.469 40.8687 417.062 41.1656 416.672C41.4677 416.276 41.874 415.964 42.3844 415.734C42.9 415.505 43.4651 415.391 44.0797 415.391C45.0536 415.391 45.8167 415.635 46.3687 416.125C46.9208 416.609 47.2073 417.279 47.2281 418.133V422.023C47.2281 422.799 47.3271 423.417 47.525 423.875V424H46.0094ZM43.6109 422.898C44.0641 422.898 44.4937 422.781 44.9 422.547C45.3062 422.312 45.6005 422.008 45.7828 421.633V419.898H44.65C42.8792 419.898 41.9937 420.417 41.9937 421.453C41.9937 421.906 42.1448 422.26 42.4469 422.516C42.749 422.771 43.137 422.898 43.6109 422.898ZM54.0056 421.758C54.0056 421.367 53.8572 421.065 53.5603 420.852C53.2686 420.633 52.7556 420.445 52.0212 420.289C51.2921 420.133 50.7113 419.945 50.2791 419.727C49.852 419.508 49.5343 419.247 49.3259 418.945C49.1228 418.643 49.0212 418.284 49.0212 417.867C49.0212 417.174 49.3129 416.589 49.8962 416.109C50.4848 415.63 51.2348 415.391 52.1462 415.391C53.1046 415.391 53.8806 415.638 54.4744 416.133C55.0733 416.628 55.3728 417.26 55.3728 418.031H53.9197C53.9197 417.635 53.7504 417.294 53.4119 417.008C53.0785 416.721 52.6567 416.578 52.1462 416.578C51.6202 416.578 51.2087 416.693 50.9119 416.922C50.615 417.151 50.4666 417.451 50.4666 417.82C50.4666 418.169 50.6046 418.432 50.8806 418.609C51.1567 418.786 51.6541 418.956 52.3728 419.117C53.0968 419.279 53.6827 419.471 54.1306 419.695C54.5785 419.919 54.9093 420.19 55.1228 420.508C55.3416 420.82 55.4509 421.203 55.4509 421.656C55.4509 422.411 55.1488 423.018 54.5447 423.477C53.9405 423.93 53.1567 424.156 52.1931 424.156C51.516 424.156 50.9171 424.036 50.3962 423.797C49.8754 423.557 49.4666 423.224 49.1697 422.797C48.878 422.365 48.7322 421.898 48.7322 421.398H50.1775C50.2035 421.883 50.3962 422.268 50.7556 422.555C51.1202 422.836 51.5994 422.977 52.1931 422.977C52.74 422.977 53.1775 422.867 53.5056 422.648C53.839 422.424 54.0056 422.128 54.0056 421.758ZM61.8456 421.758C61.8456 421.367 61.6972 421.065 61.4003 420.852C61.1086 420.633 60.5956 420.445 59.8612 420.289C59.1321 420.133 58.5513 419.945 58.1191 419.727C57.692 419.508 57.3743 419.247 57.1659 418.945C56.9628 418.643 56.8612 418.284 56.8612 417.867C56.8612 417.174 57.1529 416.589 57.7362 416.109C58.3248 415.63 59.0748 415.391 59.9862 415.391C60.9446 415.391 61.7206 415.638 62.3144 416.133C62.9133 416.628 63.2128 417.26 63.2128 418.031H61.7597C61.7597 417.635 61.5904 417.294 61.2519 417.008C60.9185 416.721 60.4967 416.578 59.9862 416.578C59.4602 416.578 59.0487 416.693 58.7519 416.922C58.455 417.151 58.3066 417.451 58.3066 417.82C58.3066 418.169 58.4446 418.432 58.7206 418.609C58.9967 418.786 59.4941 418.956 60.2128 419.117C60.9368 419.279 61.5227 419.471 61.9706 419.695C62.4185 419.919 62.7493 420.19 62.9628 420.508C63.1816 420.82 63.2909 421.203 63.2909 421.656C63.2909 422.411 62.9888 423.018 62.3847 423.477C61.7805 423.93 60.9967 424.156 60.0331 424.156C59.356 424.156 58.7571 424.036 58.2362 423.797C57.7154 423.557 57.3066 423.224 57.0097 422.797C56.718 422.365 56.5722 421.898 56.5722 421.398H58.0175C58.0435 421.883 58.2362 422.268 58.5956 422.555C58.9602 422.836 59.4394 422.977 60.0331 422.977C60.58 422.977 61.0175 422.867 61.3456 422.648C61.679 422.424 61.8456 422.128 61.8456 421.758ZM72.2481 422.008L73.8731 415.547H75.3184L72.8575 424H71.6856L69.6309 417.594L67.6309 424H66.4591L64.0059 415.547H65.4434L67.1075 421.875L69.0762 415.547H70.2403L72.2481 422.008ZM76.0022 419.695C76.0022 418.867 76.1636 418.122 76.4866 417.461C76.8147 416.799 77.2678 416.289 77.8459 415.93C78.4293 415.57 79.0933 415.391 79.8381 415.391C80.9892 415.391 81.9188 415.789 82.6272 416.586C83.3407 417.383 83.6975 418.443 83.6975 419.766V419.867C83.6975 420.69 83.5386 421.43 83.2209 422.086C82.9084 422.737 82.4579 423.245 81.8694 423.609C81.286 423.974 80.6142 424.156 79.8537 424.156C78.7079 424.156 77.7782 423.758 77.0647 422.961C76.3563 422.164 76.0022 421.109 76.0022 419.797V419.695ZM77.4553 419.867C77.4553 420.805 77.6715 421.557 78.1037 422.125C78.5412 422.693 79.1246 422.977 79.8537 422.977C80.5881 422.977 81.1715 422.69 81.6037 422.117C82.036 421.539 82.2522 420.732 82.2522 419.695C82.2522 418.768 82.0308 418.018 81.5881 417.445C81.1506 416.867 80.5673 416.578 79.8381 416.578C79.1246 416.578 78.5491 416.862 78.1116 417.43C77.6741 417.997 77.4553 418.81 77.4553 419.867ZM89.1859 416.844C88.9672 416.807 88.7302 416.789 88.475 416.789C87.5271 416.789 86.8838 417.193 86.5453 418V424H85.1V415.547H86.5062L86.5297 416.523C87.0036 415.768 87.6755 415.391 88.5453 415.391C88.8266 415.391 89.0401 415.427 89.1859 415.5V416.844ZM89.6041 419.703C89.6041 418.406 89.9113 417.365 90.5259 416.578C91.1405 415.786 91.9452 415.391 92.94 415.391C93.9296 415.391 94.7134 415.729 95.2916 416.406V412H96.7369V424H95.4087L95.3384 423.094C94.7603 423.802 93.9556 424.156 92.9244 424.156C91.9452 424.156 91.1457 423.755 90.5259 422.953C89.9113 422.151 89.6041 421.104 89.6041 419.812V419.703ZM91.0494 419.867C91.0494 420.826 91.2473 421.576 91.6431 422.117C92.039 422.659 92.5858 422.93 93.2837 422.93C94.2004 422.93 94.8697 422.518 95.2916 421.695V417.812C94.8593 417.016 94.1952 416.617 93.2994 416.617C92.591 416.617 92.039 416.891 91.6431 417.438C91.2473 417.984 91.0494 418.794 91.0494 419.867Z" fill="#929292"/>
<path d="M243.872 470.977H239.098V476H237.598V464.625H244.645V465.859H239.098V469.75H243.872V470.977ZM245.251 471.695C245.251 470.867 245.412 470.122 245.735 469.461C246.063 468.799 246.517 468.289 247.095 467.93C247.678 467.57 248.342 467.391 249.087 467.391C250.238 467.391 251.168 467.789 251.876 468.586C252.589 469.383 252.946 470.443 252.946 471.766V471.867C252.946 472.69 252.787 473.43 252.47 474.086C252.157 474.737 251.707 475.245 251.118 475.609C250.535 475.974 249.863 476.156 249.103 476.156C247.957 476.156 247.027 475.758 246.313 474.961C245.605 474.164 245.251 473.109 245.251 471.797V471.695ZM246.704 471.867C246.704 472.805 246.92 473.557 247.353 474.125C247.79 474.693 248.373 474.977 249.103 474.977C249.837 474.977 250.42 474.69 250.853 474.117C251.285 473.539 251.501 472.732 251.501 471.695C251.501 470.768 251.28 470.018 250.837 469.445C250.399 468.867 249.816 468.578 249.087 468.578C248.373 468.578 247.798 468.862 247.36 469.43C246.923 469.997 246.704 470.81 246.704 471.867ZM258.435 468.844C258.216 468.807 257.979 468.789 257.724 468.789C256.776 468.789 256.133 469.193 255.794 470V476H254.349V467.547H255.755L255.778 468.523C256.252 467.768 256.924 467.391 257.794 467.391C258.075 467.391 258.289 467.427 258.435 467.5V468.844ZM258.861 471.703C258.861 470.385 259.165 469.339 259.775 468.562C260.384 467.781 261.191 467.391 262.197 467.391C263.228 467.391 264.033 467.755 264.611 468.484L264.681 467.547H266.001V475.797C266.001 476.891 265.676 477.753 265.025 478.383C264.379 479.013 263.509 479.328 262.415 479.328C261.806 479.328 261.21 479.198 260.626 478.937C260.043 478.677 259.598 478.32 259.29 477.867L260.04 477C260.66 477.766 261.418 478.148 262.314 478.148C263.017 478.148 263.564 477.951 263.954 477.555C264.35 477.159 264.548 476.602 264.548 475.883V475.156C263.97 475.823 263.181 476.156 262.181 476.156C261.191 476.156 260.389 475.758 259.775 474.961C259.165 474.164 258.861 473.078 258.861 471.703ZM260.314 471.867C260.314 472.82 260.509 473.57 260.9 474.117C261.29 474.659 261.837 474.93 262.54 474.93C263.452 474.93 264.121 474.516 264.548 473.687V469.828C264.105 469.021 263.441 468.617 262.556 468.617C261.853 468.617 261.303 468.891 260.908 469.437C260.512 469.984 260.314 470.794 260.314 471.867ZM267.396 471.695C267.396 470.867 267.557 470.122 267.88 469.461C268.208 468.799 268.662 468.289 269.24 467.93C269.823 467.57 270.487 467.391 271.232 467.391C272.383 467.391 273.313 467.789 274.021 468.586C274.734 469.383 275.091 470.443 275.091 471.766V471.867C275.091 472.69 274.932 473.43 274.615 474.086C274.302 474.737 273.852 475.245 273.263 475.609C272.68 475.974 272.008 476.156 271.248 476.156C270.102 476.156 269.172 475.758 268.458 474.961C267.75 474.164 267.396 473.109 267.396 471.797V471.695ZM268.849 471.867C268.849 472.805 269.065 473.557 269.498 474.125C269.935 474.693 270.518 474.977 271.248 474.977C271.982 474.977 272.565 474.69 272.998 474.117C273.43 473.539 273.646 472.732 273.646 471.695C273.646 470.768 273.425 470.018 272.982 469.445C272.544 468.867 271.961 468.578 271.232 468.578C270.518 468.578 269.943 468.862 269.505 469.43C269.068 469.997 268.849 470.81 268.849 471.867ZM278.455 465.5V467.547H280.033V468.664H278.455V473.906C278.455 474.245 278.525 474.5 278.666 474.672C278.806 474.839 279.046 474.922 279.384 474.922C279.551 474.922 279.78 474.891 280.072 474.828V476C279.692 476.104 279.322 476.156 278.963 476.156C278.317 476.156 277.83 475.961 277.502 475.57C277.173 475.18 277.009 474.625 277.009 473.906V468.664H275.47V467.547H277.009V465.5H278.455ZM286.603 471.547V476H285.103V464.625H289.299C290.544 464.625 291.518 464.943 292.221 465.578C292.929 466.214 293.283 467.055 293.283 468.102C293.283 469.206 292.937 470.057 292.244 470.656C291.557 471.25 290.57 471.547 289.283 471.547H286.603ZM286.603 470.32H289.299C290.101 470.32 290.715 470.133 291.143 469.758C291.57 469.378 291.783 468.831 291.783 468.117C291.783 467.44 291.57 466.898 291.143 466.492C290.715 466.086 290.129 465.875 289.385 465.859H286.603V470.32ZM299.686 476C299.602 475.833 299.535 475.536 299.483 475.109C298.811 475.807 298.009 476.156 297.076 476.156C296.243 476.156 295.558 475.922 295.022 475.453C294.49 474.979 294.225 474.38 294.225 473.656C294.225 472.776 294.558 472.094 295.225 471.609C295.897 471.12 296.839 470.875 298.053 470.875H299.459V470.211C299.459 469.706 299.308 469.305 299.006 469.008C298.704 468.706 298.259 468.555 297.67 468.555C297.154 468.555 296.722 468.685 296.373 468.945C296.024 469.206 295.85 469.521 295.85 469.891H294.397C294.397 469.469 294.545 469.062 294.842 468.672C295.144 468.276 295.55 467.964 296.061 467.734C296.576 467.505 297.141 467.391 297.756 467.391C298.73 467.391 299.493 467.635 300.045 468.125C300.597 468.609 300.884 469.279 300.904 470.133V474.023C300.904 474.799 301.003 475.417 301.201 475.875V476H299.686ZM297.287 474.898C297.74 474.898 298.17 474.781 298.576 474.547C298.983 474.312 299.277 474.008 299.459 473.633V471.898H298.326C296.555 471.898 295.67 472.417 295.67 473.453C295.67 473.906 295.821 474.26 296.123 474.516C296.425 474.771 296.813 474.898 297.287 474.898ZM307.682 473.758C307.682 473.367 307.533 473.065 307.237 472.852C306.945 472.633 306.432 472.445 305.697 472.289C304.968 472.133 304.388 471.945 303.955 471.727C303.528 471.508 303.211 471.247 303.002 470.945C302.799 470.643 302.697 470.284 302.697 469.867C302.697 469.174 302.989 468.589 303.572 468.109C304.161 467.63 304.911 467.391 305.822 467.391C306.781 467.391 307.557 467.638 308.151 468.133C308.75 468.628 309.049 469.26 309.049 470.031H307.596C307.596 469.635 307.427 469.294 307.088 469.008C306.755 468.721 306.333 468.578 305.822 468.578C305.296 468.578 304.885 468.693 304.588 468.922C304.291 469.151 304.143 469.451 304.143 469.82C304.143 470.169 304.281 470.432 304.557 470.609C304.833 470.786 305.33 470.956 306.049 471.117C306.773 471.279 307.359 471.471 307.807 471.695C308.255 471.919 308.586 472.19 308.799 472.508C309.018 472.82 309.127 473.203 309.127 473.656C309.127 474.411 308.825 475.018 308.221 475.477C307.617 475.93 306.833 476.156 305.869 476.156C305.192 476.156 304.593 476.036 304.072 475.797C303.552 475.557 303.143 475.224 302.846 474.797C302.554 474.365 302.408 473.898 302.408 473.398H303.854C303.88 473.883 304.072 474.268 304.432 474.555C304.796 474.836 305.276 474.977 305.869 474.977C306.416 474.977 306.854 474.867 307.182 474.648C307.515 474.424 307.682 474.128 307.682 473.758ZM315.522 473.758C315.522 473.367 315.373 473.065 315.077 472.852C314.785 472.633 314.272 472.445 313.538 472.289C312.808 472.133 312.228 471.945 311.795 471.727C311.368 471.508 311.051 471.247 310.842 470.945C310.639 470.643 310.538 470.284 310.538 469.867C310.538 469.174 310.829 468.589 311.413 468.109C312.001 467.63 312.751 467.391 313.663 467.391C314.621 467.391 315.397 467.638 315.991 468.133C316.59 468.628 316.889 469.26 316.889 470.031H315.436C315.436 469.635 315.267 469.294 314.928 469.008C314.595 468.721 314.173 468.578 313.663 468.578C313.136 468.578 312.725 468.693 312.428 468.922C312.131 469.151 311.983 469.451 311.983 469.82C311.983 470.169 312.121 470.432 312.397 470.609C312.673 470.786 313.17 470.956 313.889 471.117C314.613 471.279 315.199 471.471 315.647 471.695C316.095 471.919 316.426 472.19 316.639 472.508C316.858 472.82 316.967 473.203 316.967 473.656C316.967 474.411 316.665 475.018 316.061 475.477C315.457 475.93 314.673 476.156 313.709 476.156C313.032 476.156 312.433 476.036 311.913 475.797C311.392 475.557 310.983 475.224 310.686 474.797C310.394 474.365 310.248 473.898 310.248 473.398H311.694C311.72 473.883 311.913 474.268 312.272 474.555C312.636 474.836 313.116 474.977 313.709 474.977C314.256 474.977 314.694 474.867 315.022 474.648C315.355 474.424 315.522 474.128 315.522 473.758ZM325.924 474.008L327.549 467.547H328.995L326.534 476H325.362L323.307 469.594L321.307 476H320.135L317.682 467.547H319.12L320.784 473.875L322.753 467.547H323.917L325.924 474.008ZM329.678 471.695C329.678 470.867 329.84 470.122 330.163 469.461C330.491 468.799 330.944 468.289 331.522 467.93C332.106 467.57 332.77 467.391 333.514 467.391C334.665 467.391 335.595 467.789 336.303 468.586C337.017 469.383 337.374 470.443 337.374 471.766V471.867C337.374 472.69 337.215 473.43 336.897 474.086C336.585 474.737 336.134 475.245 335.546 475.609C334.962 475.974 334.29 476.156 333.53 476.156C332.384 476.156 331.454 475.758 330.741 474.961C330.033 474.164 329.678 473.109 329.678 471.797V471.695ZM331.132 471.867C331.132 472.805 331.348 473.557 331.78 474.125C332.217 474.693 332.801 474.977 333.53 474.977C334.264 474.977 334.848 474.69 335.28 474.117C335.712 473.539 335.928 472.732 335.928 471.695C335.928 470.768 335.707 470.018 335.264 469.445C334.827 468.867 334.244 468.578 333.514 468.578C332.801 468.578 332.225 468.862 331.788 469.43C331.35 469.997 331.132 470.81 331.132 471.867ZM342.862 468.844C342.643 468.807 342.406 468.789 342.151 468.789C341.203 468.789 340.56 469.193 340.222 470V476H338.776V467.547H340.182L340.206 468.523C340.68 467.768 341.352 467.391 342.222 467.391C342.503 467.391 342.716 467.427 342.862 467.5V468.844ZM343.28 471.703C343.28 470.406 343.588 469.365 344.202 468.578C344.817 467.786 345.621 467.391 346.616 467.391C347.606 467.391 348.39 467.729 348.968 468.406V464H350.413V476H349.085L349.015 475.094C348.437 475.802 347.632 476.156 346.601 476.156C345.621 476.156 344.822 475.755 344.202 474.953C343.588 474.151 343.28 473.104 343.28 471.812V471.703ZM344.726 471.867C344.726 472.826 344.924 473.576 345.319 474.117C345.715 474.659 346.262 474.93 346.96 474.93C347.877 474.93 348.546 474.518 348.968 473.695V469.812C348.536 469.016 347.871 468.617 346.976 468.617C346.267 468.617 345.715 468.891 345.319 469.437C344.924 469.984 344.726 470.794 344.726 471.867ZM353.948 472.797C353.959 472.177 354.029 471.687 354.159 471.328C354.29 470.969 354.555 470.57 354.956 470.133L355.98 469.078C356.417 468.583 356.636 468.052 356.636 467.484C356.636 466.937 356.493 466.51 356.206 466.203C355.92 465.891 355.503 465.734 354.956 465.734C354.425 465.734 353.998 465.875 353.675 466.156C353.352 466.437 353.191 466.815 353.191 467.289H351.745C351.756 466.445 352.055 465.766 352.644 465.25C353.238 464.729 354.008 464.469 354.956 464.469C355.941 464.469 356.706 464.734 357.253 465.266C357.805 465.792 358.081 466.516 358.081 467.437C358.081 468.349 357.659 469.247 356.816 470.133L355.964 470.977C355.584 471.398 355.394 472.005 355.394 472.797H353.948ZM353.886 475.273C353.886 475.039 353.956 474.844 354.097 474.687C354.243 474.526 354.456 474.445 354.738 474.445C355.019 474.445 355.232 474.526 355.378 474.687C355.524 474.844 355.597 475.039 355.597 475.273C355.597 475.508 355.524 475.703 355.378 475.859C355.232 476.01 355.019 476.086 354.738 476.086C354.456 476.086 354.243 476.01 354.097 475.859C353.956 475.703 353.886 475.508 353.886 475.273Z" fill="#007AFF"/>
<defs>
<filter id="filter0_dd_0:1" x="164.382" y="519.607" width="46.4362" height="23.9292" filterUnits="userSpaceOnUse" color-interpolation-filters="sRGB">
<feFlood flood-opacity="0" result="BackgroundImageFix"/>
<feColorMatrix in="SourceAlpha" type="matrix" values="0 0 0 0 0 0 0 0 0 0 0 0 0 0 0 0 0 0 127 0" result="hardAlpha"/>
<feOffset dy="4"/>
<feGaussianBlur stdDeviation="2"/>
<feColorMatrix type="matrix" values="0 0 0 0 0 0 0 0 0 0 0 0 0 0 0 0 0 0 0.25 0"/>
<feBlend mode="normal" in2="BackgroundImageFix" result="effect1_dropShadow_0:1"/>
<feColorMatrix in="SourceAlpha" type="matrix" values="0 0 0 0 0 0 0 0 0 0 0 0 0 0 0 0 0 0 127 0" result="hardAlpha"/>
<feOffset dy="4"/>
<feGaussianBlur stdDeviation="2"/>
<feColorMatrix type="matrix" values="0 0 0 0 0 0 0 0 0 0 0 0 0 0 0 0 0 0 0.25 0"/>
<feBlend mode="normal" in2="effect1_dropShadow_0:1" result="effect2_dropShadow_0:1"/>
<feBlend mode="normal" in="SourceGraphic" in2="effect2_dropShadow_0:1" result="shape"/>
</filter>
</defs>
</svg>
